<?xml version="1.0" encoding="UTF-8" standalone="no"?>
<!-- Created with Inkscape (http://www.inkscape.org/) -->

<svg
   width="310mm"
   height="114.5mm"
   viewBox="0 0 310 114.5"
   version="1.1"
   id="svg5"
   inkscape:version="1.1.2 (b8e25be833, 2022-02-05)"
   sodipodi:docname="RSK.svg"
   xmlns:inkscape="http://www.inkscape.org/namespaces/inkscape"
   xmlns:sodipodi="http://sodipodi.sourceforge.net/DTD/sodipodi-0.dtd"
   xmlns="http://www.w3.org/2000/svg"
   xmlns:svg="http://www.w3.org/2000/svg">
  <sodipodi:namedview
     id="namedview7"
     pagecolor="#505050"
     bordercolor="#ffffff"
     borderopacity="1"
     inkscape:pageshadow="0"
     inkscape:pageopacity="0"
     inkscape:pagecheckerboard="1"
     inkscape:document-units="mm"
     showgrid="false"
     width="310mm"
     height="114.5mm"
     inkscape:zoom="2.8934905"
     inkscape:cx="1047.351"
     inkscape:cy="86.57364"
     inkscape:window-width="1920"
     inkscape:window-height="1002"
     inkscape:window-x="-8"
     inkscape:window-y="-8"
     inkscape:window-maximized="1"
     inkscape:current-layer="layer1" />
  <defs
     id="defs2" />
  <g
     inkscape:label="Layer 1"
     inkscape:groupmode="layer"
     id="layer1">
    <g
       transform="matrix(0.03527778,0,0,-0.03527778,-3.2287007,115.48512)"
       fill="#000000"
       stroke="none"
       id="g101">
      <path
         d="m 8337,2748 c -267,-255 -486,-468 -486,-474 -1,-7 5,-14 12,-16 10,-4 161,137 865,812 99,96 132,140 103,140 -5,0 -227,-208 -494,-462 z"
         id="path75" />
      <path
         d="m 2932,2723 c -103,-137 -197,-260 -208,-275 -10,-15 -21,-28 -24,-28 -3,0 -46,54 -95,120 l -89,120 H 1728 940 v -36 c 0,-31 2,-35 17,-28 26,13 1515,17 1546,5 15,-6 58,-52 97,-105 71,-94 89,-110 113,-100 16,7 421,538 425,558 9,42 -32,-3 -206,-231 z"
         id="path77" />
      <path
         d="m 5688,2963 c -10,-2 -18,-8 -18,-13 0,-26 39,-29 379,-30 321,-1 355,0 372,16 10,9 19,21 19,26 0,8 -720,10 -752,1 z"
         id="path79" />
      <path
         d="M 5955,2560 5685,2290 H 4654 c -809,0 -1033,-3 -1045,-12 -9,-7 -55,-59 -103,-116 -64,-74 -86,-108 -81,-120 5,-14 15,-7 53,38 26,30 68,77 94,105 l 47,50 1033,3 1032,2 283,283 c 156,155 283,288 283,295 0,6 -6,12 -13,12 -6,0 -134,-121 -282,-270 z"
         id="path81" />
      <path
         d="m 2530,2002 c 0,-21 523,-731 570,-774 l 30,-28 h 1024 1023 l 39,-42 c 22,-24 61,-71 88,-106 27,-34 53,-62 57,-62 26,0 9,30 -78,139 l -96,121 H 4149 3112 l -282,380 c -156,210 -287,383 -292,386 -4,3 -8,-3 -8,-14 z"
         id="path83" />
      <path
         d="m 5688,1863 c -36,-9 -21,-27 45,-53 32,-13 80,-72 336,-412 217,-289 302,-394 309,-385 7,9 -78,128 -307,432 -329,435 -327,434 -383,418 z"
         id="path85" />
      <path
         d="m 6930,1399 c -310,-292 -436,-417 -438,-434 -4,-27 12,-34 25,-12 4,8 192,188 418,400 266,251 417,387 430,387 14,0 119,-99 313,-293 243,-244 292,-289 292,-267 0,20 -64,89 -302,327 l -303,303 z"
         id="path87" />
      <path
         d="m 940,1415 c 0,-32 2,-35 19,-25 13,7 275,10 780,10 h 760 l 58,-49 c 32,-26 88,-80 125,-118 60,-63 68,-68 74,-50 5,17 -17,43 -119,144 l -125,123 H 1726 940 Z"
         id="path89" />
      <path
         d="M 6087,738 C 5992,610 5859,430 5791,338 L 5667,170 H 4114 c -1068,0 -1555,-3 -1559,-10 -4,-6 -1,-17 5,-25 11,-13 216,-15 1551,-15 h 1539 l 29,28 c 17,15 155,196 307,402 244,330 304,420 280,420 -4,0 -84,-105 -179,-232 z"
         id="path91" />
      <path
         d="m 3185,863 -80,-4 -167,-167 c -93,-92 -168,-170 -168,-174 0,-29 53,11 184,141 l 151,148 154,7 c 85,3 184,6 221,6 65,0 90,10 90,37 0,13 -156,15 -385,6 z"
         id="path93" />
      <path
         d="M 543,316 C 81,52 105,67 124,50 143,35 120,23 559,275 891,465 947,503 938,531 936,536 758,440 543,316 Z"
         id="path95" />
      <path
         d="m 7977,524 c 3,-8 17,-20 30,-25 33,-12 724,-12 757,1 14,5 26,16 26,25 0,13 -49,15 -410,15 -369,0 -409,-2 -403,-16 z"
         id="path97" />
      <path
         d="M 6130,334 C 5940,226 5775,129 5762,117 c -33,-31 -12,-44 35,-21 86,43 655,370 673,387 20,17 27,47 13,47 -5,0 -163,-88 -353,-196 z"
         id="path99" />
    </g>
    <g
       transform="matrix(0.03527778,0,0,-0.03527778,-3.2639807,115.8379)"
       fill="#FF9A19"
       stroke="none"
       id="g129">
      <path
         d="m 117,3263 c -10,-9 -9,-3183 1,-3183 4,0 188,105 409,233 l 402,232 5,450 c 3,248 5,451 5,453 1,1 355,2 789,2 h 787 l 123,-122 122,-121 V 866 525 l 173,173 172,172 h 233 232 v 145 145 l -247,2 -246,3 -154,210 c -85,116 -233,317 -330,447 l -175,238 -739,2 -740,3 v 295 295 l 790,3 791,2 86,-115 c 48,-64 90,-114 94,-113 5,2 102,126 216,277 115,151 216,276 225,278 12,4 -7,35 -79,131 -52,70 -96,133 -99,140 -4,9 -298,12 -1422,12 -780,0 -1421,-3 -1424,-7 z"
         id="path123" />
      <path
         d="m 5677,3263 c -4,-3 -7,-71 -7,-150 v -143 h 390 c 215,0 390,-3 390,-7 0,-5 -175,-182 -390,-395 l -390,-386 v -156 -155 l 44,-3 44,-3 316,-418 c 174,-230 316,-421 316,-423 0,-2 -33,-48 -74,-101 C 6276,869 6169,726 6080,605 5990,484 5873,327 5820,255 5696,89 5697,91 5755,124 c 26,16 202,116 389,222 l 341,193 3,225 2,225 435,410 c 239,226 438,411 442,411 5,0 144,-136 311,-303 l 302,-302 V 877 550 h 405 405 v 387 388 l -475,475 -475,475 506,485 c 279,267 510,487 515,488 46,18 -48,22 -468,22 l -478,-1 -640,-605 c -352,-333 -670,-634 -706,-670 -37,-35 -70,-64 -73,-64 -3,0 -6,302 -6,670 v 670 h -403 c -222,0 -407,-3 -410,-7 z"
         id="path125" />
      <path
         d="m 3013,2728 c -66,-90 -204,-277 -307,-416 l -188,-254 25,-36 c 37,-54 543,-731 563,-753 17,-18 51,-19 1050,-19 h 1033 l 97,-120 c 53,-66 94,-123 92,-128 -1,-5 -43,-57 -93,-115 L 5195,781 H 4160 L 3125,780 2825,480 2525,180 h 1571 1572 l 40,53 c 61,81 557,750 565,764 5,8 -101,157 -289,408 l -298,395 H 4649 3611 l -101,126 -102,125 100,117 99,117 1034,3 1034,2 300,300 301,300 H 4705 3133 Z"
         id="path127" />
    </g>
  </g>
</svg>
